<?xml version="1.0" encoding="UTF-8" standalone="no"?>
<svg
   xmlns:dc="http://purl.org/dc/elements/1.1/"
   xmlns:cc="http://creativecommons.org/ns#"
   xmlns:rdf="http://www.w3.org/1999/02/22-rdf-syntax-ns#"
   xmlns:svg="http://www.w3.org/2000/svg"
   xmlns="http://www.w3.org/2000/svg"
   xmlns:sodipodi="http://sodipodi.sourceforge.net/DTD/sodipodi-0.dtd"
   xmlns:inkscape="http://www.inkscape.org/namespaces/inkscape"
   viewBox="0.0 0.0 348.0 348.0"
   fill="none"
   id="svg2"
   version="1.1"
   inkscape:version="0.91 r13725"
   sodipodi:docname="Christmas Presents.svg">
  <metadata
     id="metadata12">
    <rdf:RDF>
      <cc:Work
         rdf:about="">
        <dc:format>image/svg+xml</dc:format>
        <dc:type
           rdf:resource="http://purl.org/dc/dcmitype/StillImage" />
      </cc:Work>
    </rdf:RDF>
  </metadata>
  <defs
     id="defs10" />
  <sodipodi:namedview
     pagecolor="#ffffff"
     bordercolor="#666666"
     borderopacity="1"
     objecttolerance="10"
     gridtolerance="10"
     guidetolerance="10"
     inkscape:pageopacity="0"
     inkscape:pageshadow="2"
     inkscape:window-width="1440"
     inkscape:window-height="785"
     id="namedview8"
     showgrid="false"
     inkscape:zoom="0.67816092"
     inkscape:cx="-39.813559"
     inkscape:cy="174"
     inkscape:window-x="0"
     inkscape:window-y="1"
     inkscape:window-maximized="1"
     inkscape:current-layer="svg2" />
  <path
     d="M5.079 5.776h336.913v337.67H5.08z"
     stroke-width="2"
     stroke="#000"
     id="path4" />
  <path
     d="M282.734 40.554c0-8.376 6.966-15.165 15.56-15.165 4.126 0 8.084 1.597 11.001 4.441 2.918 2.844 4.558 6.702 4.558 10.724 0 8.376-6.966 15.165-15.56 15.165-8.593 0-15.559-6.79-15.559-15.165z"
     stroke-width="2"
     stroke="#000"
     id="path6" />
  <g
     style="font-style:normal;font-weight:normal;font-size:40px;line-height:125%;font-family:sans-serif;letter-spacing:0px;word-spacing:0px;fill:#000000;fill-opacity:1;stroke:none;stroke-width:1px;stroke-linecap:butt;stroke-linejoin:miter;stroke-opacity:1"
     id="text4182">
    <path
       d="m 69.302285,57.818729 c 0,1.1 0.88,1.98 1.98,1.98 l 4.455,0 0,29.59 c 0,1.1 0.88,1.98 1.98,1.98 l 1.485,0 c 1.1,0 1.98,-0.88 1.98,-1.98 l 0,-29.59 4.51,0 c 1.1,0 1.98,-0.88 1.98,-1.98 l 0,-1.54 c 0,-1.1 -0.88,-1.98 -1.98,-1.98 l -14.41,0 c -1.1,0 -1.98,0.88 -1.98,1.98 l 0,1.54 z"
       style="font-style:normal;font-variant:normal;font-weight:900;font-stretch:normal;font-size:55px;font-family:'Ostrich Sans';-inkscape-font-specification:'Ostrich Sans Heavy';text-align:center;text-anchor:middle"
       id="path4193" />
    <path
       d="m 95.002754,70.193729 0,-13.86 c 0,-1.1 -0.88,-1.98 -1.98,-1.98 l -1.54,0 c -1.1,0 -1.98,0.88 -1.98,1.98 l 0,33.11 c 0,1.1 0.88,1.98 1.98,1.98 l 1.54,0 c 1.1,0 1.98,-0.88 1.98,-1.98 l 0,-13.805 6.104996,0 0,13.805 c 0,1.1 0.88,1.98 1.98,1.98 l 1.54,0 c 1.1,0 1.98,-0.88 1.98,-1.98 l 0,-33.11 c 0,-1.1 -0.88,-1.98 -1.98,-1.98 l -1.54,0 c -1.1,0 -1.98,0.88 -1.98,1.98 l 0,13.86 -6.104996,0 z"
       style="font-style:normal;font-variant:normal;font-weight:900;font-stretch:normal;font-size:55px;font-family:'Ostrich Sans';-inkscape-font-specification:'Ostrich Sans Heavy';text-align:center;text-anchor:middle"
       id="path4195" />
    <path
       d="m 116.48197,56.333729 c 0,-1.1 -0.935,-1.98 -1.98,-1.98 l -1.54,0 c -1.1,0 -1.98,0.88 -1.98,1.98 l 0,33.11 c 0,1.1 0.88,1.98 1.98,1.98 l 1.54,0 c 1.045,0 1.98,-0.88 1.98,-1.98 l 0,-33.11 z"
       style="font-style:normal;font-variant:normal;font-weight:900;font-stretch:normal;font-size:55px;font-family:'Ostrich Sans';-inkscape-font-specification:'Ostrich Sans Heavy';text-align:center;text-anchor:middle"
       id="path4197" />
    <path
       d="m 120.33283,80.643729 c 0,7.205 3.025,10.725 9.075,10.725 5.83,0 9.075,-3.3 9.075,-9.46 0,-5.335 -3.685,-8.14 -7.315,-10.945 l 0.055,0 c -2.695,-2.09 -5.39,-4.235 -5.39,-7.04 0,-2.86 1.265,-4.125 3.575,-4.125 2.42,0 3.575,1.65 3.575,5.28 l 0,0.77 c 0,1.1 0.88,1.98 1.98,1.98 l 1.54,0 c 1.1,0 1.98,-0.88 1.98,-1.98 l 0,-0.77 c 0,-6.985 -3.135,-10.78 -9.075,-10.78 -5.83,0 -9.075,3.575 -9.075,9.79 0,5.445 3.795,8.415 7.425,11.275 l 0,-0.055 c 2.695,2.09 5.225,4.125 5.225,6.71 0,2.915 -1.265,3.905 -3.575,3.905 -0.77,0 -1.705,-0.11 -2.31,-0.715 -0.77,-0.66 -1.265,-1.925 -1.265,-4.565 l 0,-0.715 c 0,-1.1 -0.935,-1.98 -1.98,-1.98 l -1.54,0 c -1.1,0 -1.98,0.88 -1.98,1.98 l 0,0.715 z"
       style="font-style:normal;font-variant:normal;font-weight:900;font-stretch:normal;font-size:55px;font-family:'Ostrich Sans';-inkscape-font-specification:'Ostrich Sans Heavy';text-align:center;text-anchor:middle"
       id="path4199" />
    <path
       d="m 164.18846,91.423729 c 0.825,0 1.705,-0.715 1.925,-1.595 l 1.815,-12.21 0,11.825 c 0,1.1 0.88,1.98 1.98,1.98 l 1.54,0 c 1.1,0 1.98,-0.88 1.98,-1.98 l 0,-33.11 c 0,-1.1 -0.88,-1.98 -1.98,-1.98 l -1.65,0 c -0.825,0 -1.76,0.715 -1.925,1.54 l -4.29,22.165 -4.345,-22.165 c -0.165,-0.825 -1.045,-1.54 -1.87,-1.54 l -1.65,0 c -1.1,0 -1.98,0.88 -1.98,1.98 l 0,33.11 c 0,1.1 0.88,1.98 1.98,1.98 l 1.54,0 c 1.045,0 1.98,-0.88 1.98,-1.98 l 0,-11.935 1.87,12.375 c 0.165,0.825 1.045,1.54 1.87,1.54 l 1.21,0 z"
       style="font-style:normal;font-variant:normal;font-weight:900;font-stretch:normal;font-size:55px;font-family:'Ostrich Sans';-inkscape-font-specification:'Ostrich Sans Heavy';text-align:center;text-anchor:middle"
       id="path4201" />
    <path
       d="m 178.23322,80.643729 c 0,4.345 1.21,6.875 2.915,8.58 1.815,1.76 4.125,2.2 6.105,2.2 2.035,0 4.345,-0.44 6.16,-2.2 1.705,-1.705 2.86,-4.235 2.86,-8.58 l 0,-15.565 c 0,-6.985 -2.97,-10.725 -9.02,-10.725 -5.995,0 -9.02,3.795 -9.02,10.725 l 0,15.565 z m 5.5,-15.565 c 0,-3.575 1.1,-5.28 3.52,-5.28 2.365,0 3.52,1.595 3.52,5.28 l 0,15.565 c 0,3.74 -1.21,5.335 -3.52,5.335 -2.365,0 -3.52,-1.705 -3.52,-5.335 l 0,-15.565 z"
       style="font-style:normal;font-variant:normal;font-weight:900;font-stretch:normal;font-size:55px;font-family:'Ostrich Sans';-inkscape-font-specification:'Ostrich Sans Heavy';text-align:center;text-anchor:middle"
       id="path4203" />
    <path
       d="m 208.27697,91.423729 c 6.6,0 9.68,-3.74 9.68,-10.89 l 0,-15.29 c 0,-7.15 -3.08,-10.89 -9.68,-10.89 l -5.61,0 c -1.1,0 -1.98,0.88 -1.98,1.98 l 0,33.11 c 0,1.1 0.88,1.98 1.98,1.98 l 5.61,0 z m 0,-31.625 c 2.915,0 4.125,1.76 4.125,5.445 l 0,15.29 c 0,3.685 -1.21,5.445 -4.125,5.445 l -2.145,0 0,-26.18 2.145,0 z"
       style="font-style:normal;font-variant:normal;font-weight:900;font-stretch:normal;font-size:55px;font-family:'Ostrich Sans';-inkscape-font-specification:'Ostrich Sans Heavy';text-align:center;text-anchor:middle"
       id="path4205" />
    <path
       d="m 222.10604,81.303729 c 0,5.83 2.42,10.065 9.02,10.065 6.38,0 9.02,-3.905 9.02,-10.065 l 0,-25.025 c 0,-1.1 -0.88,-1.98 -1.98,-1.98 l -1.54,0 c -1.045,0 -1.925,0.88 -1.925,1.98 l 0,25.025 c 0,2.64 -0.77,4.62 -3.575,4.62 -2.695,0 -3.575,-1.705 -3.575,-4.62 l 0,-25.025 c 0,-1.1 -0.88,-1.98 -1.98,-1.98 l -1.54,0 c -1.045,0 -1.925,0.88 -1.925,1.98 l 0,25.025 z"
       style="font-style:normal;font-variant:normal;font-weight:900;font-stretch:normal;font-size:55px;font-family:'Ostrich Sans';-inkscape-font-specification:'Ostrich Sans Heavy';text-align:center;text-anchor:middle"
       id="path4207" />
    <path
       d="m 260.33963,87.958729 c 0,-1.1 -0.88,-1.98 -1.98,-1.98 l -8.195,0 0,-29.645 c 0,-1.1 -0.88,-1.98 -1.925,-1.98 l -1.595,0 c -1.1,0 -1.98,0.88 -1.98,1.98 l 0,33.11 c 0,1.1 0.88,1.98 1.98,1.98 l 11.715,0 c 1.1,0 1.98,-0.88 1.98,-1.98 l 0,-1.485 z"
       style="font-style:normal;font-variant:normal;font-weight:900;font-stretch:normal;font-size:55px;font-family:'Ostrich Sans';-inkscape-font-specification:'Ostrich Sans Heavy';text-align:center;text-anchor:middle"
       id="path4209" />
    <path
       d="m 265.45119,54.353729 c -1.1,0 -1.98,0.88 -1.98,1.98 l 0,33.11 c 0,1.1 0.88,1.98 1.98,1.98 l 11.88,0 c 1.1,0 1.98,-0.88 1.98,-1.98 l 0,-1.485 c 0,-1.1 -0.88,-1.98 -1.98,-1.98 l -8.415,0 0,-10.395 6.93,0 c 1.1,0 1.98,-0.88 1.98,-1.98 l 0,-1.485 c 0,-1.1 -0.88,-1.98 -1.98,-1.98 l -6.93,0 0,-10.34 8.415,0 c 1.1,0 1.98,-0.88 1.98,-1.98 l 0,-1.485 c 0,-1.1 -0.88,-1.98 -1.98,-1.98 l -11.88,0 z"
       style="font-style:normal;font-variant:normal;font-weight:900;font-stretch:normal;font-size:55px;font-family:'Ostrich Sans';-inkscape-font-specification:'Ostrich Sans Heavy';text-align:center;text-anchor:middle"
       id="path4211" />
    <path
       d="m 29.453926,149.39373 c 0,7.205 3.025,10.725 9.075,10.725 5.83,0 9.075,-3.3 9.075,-9.46 0,-5.335 -3.685,-8.14 -7.315,-10.945 l 0.055,0 c -2.695,-2.09 -5.39,-4.235 -5.39,-7.04 0,-2.86 1.265,-4.125 3.575,-4.125 2.42,0 3.575,1.65 3.575,5.28 l 0,0.77 c 0,1.1 0.88,1.98 1.98,1.98 l 1.54,0 c 1.1,0 1.98,-0.88 1.98,-1.98 l 0,-0.77 c 0,-6.985 -3.135,-10.78 -9.075,-10.78 -5.83,0 -9.075,3.575 -9.075,9.79 0,5.445 3.795,8.415 7.425,11.275 l 0,-0.055 c 2.695,2.09 5.225,4.125 5.225,6.71 0,2.915 -1.265,3.905 -3.575,3.905 -0.77,0 -1.705,-0.11 -2.31,-0.715 -0.77,-0.66 -1.265,-1.925 -1.265,-4.565 l 0,-0.715 c 0,-1.1 -0.935,-1.98 -1.98,-1.98 l -1.54,0 c -1.1,0 -1.98,0.88 -1.98,1.98 l 0,0.715 z"
       style="font-style:normal;font-variant:normal;font-weight:900;font-stretch:normal;font-size:55px;font-family:'Ostrich Sans';-inkscape-font-specification:'Ostrich Sans Heavy';text-align:center;text-anchor:middle"
       id="path4213" />
    <path
       d="m 56.867988,138.94373 0,-13.86 c 0,-1.1 -0.88,-1.98 -1.98,-1.98 l -1.54,0 c -1.1,0 -1.98,0.88 -1.98,1.98 l 0,33.11 c 0,1.1 0.88,1.98 1.98,1.98 l 1.54,0 c 1.1,0 1.98,-0.88 1.98,-1.98 l 0,-13.805 6.105,0 0,13.805 c 0,1.1 0.88,1.98 1.98,1.98 l 1.54,0 c 1.1,0 1.98,-0.88 1.98,-1.98 l 0,-33.11 c 0,-1.1 -0.88,-1.98 -1.98,-1.98 l -1.54,0 c -1.1,0 -1.98,0.88 -1.98,1.98 l 0,13.86 -6.105,0 z"
       style="font-style:normal;font-variant:normal;font-weight:900;font-stretch:normal;font-size:55px;font-family:'Ostrich Sans';-inkscape-font-specification:'Ostrich Sans Heavy';text-align:center;text-anchor:middle"
       id="path4215" />
    <path
       d="m 73.067207,149.39373 c 0,4.345 1.21,6.875 2.915,8.58 1.815,1.76 4.125,2.2 6.105,2.2 2.035,0 4.345,-0.44 6.16,-2.2 1.705,-1.705 2.86,-4.235 2.86,-8.58 l 0,-15.565 c 0,-6.985 -2.97,-10.725 -9.02,-10.725 -5.995,0 -9.02,3.795 -9.02,10.725 l 0,15.565 z m 5.5,-15.565 c 0,-3.575 1.1,-5.28 3.52,-5.28 2.365,0 3.52,1.595 3.52,5.28 l 0,15.565 c 0,3.74 -1.21,5.335 -3.52,5.335 -2.365,0 -3.52,-1.705 -3.52,-5.335 l 0,-15.565 z"
       style="font-style:normal;font-variant:normal;font-weight:900;font-stretch:normal;font-size:55px;font-family:'Ostrich Sans';-inkscape-font-specification:'Ostrich Sans Heavy';text-align:center;text-anchor:middle"
       id="path4217" />
    <path
       d="m 109.09994,124.69873 c -0.165,-0.88 -1.045,-1.595 -1.925,-1.595 l -1.21,0 c -0.88,0 -1.76,0.715 -1.925,1.595 l -2.86,16.72 -2.529999,-16.665 c -0.165,-0.935 -1.045,-1.65 -1.98,-1.65 l -1.595,0 c -1.265,0 -2.09,1.045 -1.925,2.255 l 5.39,33.165 c 0.165,0.88 0.99,1.65 1.924999,1.65 l 1.21,0 c 0.88,0 1.76,-0.715 1.925,-1.595 l 2.97,-17.545 2.915,17.545 c 0.165,0.88 1.045,1.595 1.925,1.595 l 1.265,0 c 0.935,0 1.815,-0.77 1.98,-1.65 l 5.28,-33.165 c 0.165,-1.21 -0.77,-2.255 -1.98,-2.255 l -1.595,0 c -0.935,0 -1.87,0.715 -1.98,1.65 l -2.475,16.555 -2.805,-16.61 z"
       style="font-style:normal;font-variant:normal;font-weight:900;font-stretch:normal;font-size:55px;font-family:'Ostrich Sans';-inkscape-font-specification:'Ostrich Sans Heavy';text-align:center;text-anchor:middle"
       id="path4219" />
    <path
       d="m 123.87775,149.39373 c 0,7.205 3.025,10.725 9.075,10.725 5.83,0 9.075,-3.3 9.075,-9.46 0,-5.335 -3.685,-8.14 -7.315,-10.945 l 0.055,0 c -2.695,-2.09 -5.39,-4.235 -5.39,-7.04 0,-2.86 1.265,-4.125 3.575,-4.125 2.42,0 3.575,1.65 3.575,5.28 l 0,0.77 c 0,1.1 0.88,1.98 1.98,1.98 l 1.54,0 c 1.1,0 1.98,-0.88 1.98,-1.98 l 0,-0.77 c 0,-6.985 -3.135,-10.78 -9.075,-10.78 -5.83,0 -9.075,3.575 -9.075,9.79 0,5.445 3.795,8.415 7.425,11.275 l 0,-0.055 c 2.695,2.09 5.225,4.125 5.225,6.71 0,2.915 -1.265,3.905 -3.575,3.905 -0.77,0 -1.705,-0.11 -2.31,-0.715 -0.77,-0.66 -1.265,-1.925 -1.265,-4.565 l 0,-0.715 c 0,-1.1 -0.935,-1.98 -1.98,-1.98 l -1.54,0 c -1.1,0 -1.98,0.88 -1.98,1.98 l 0,0.715 z"
       style="font-style:normal;font-variant:normal;font-weight:900;font-stretch:normal;font-size:55px;font-family:'Ostrich Sans';-inkscape-font-specification:'Ostrich Sans Heavy';text-align:center;text-anchor:middle"
       id="path4221" />
    <path
       d="m 165.36838,144.33373 c 6.71,0 9.68,-3.52 9.68,-10.615 0,-7.095 -2.97,-10.615 -9.68,-10.615 l -5.94,0 c -1.1,0 -1.98,0.88 -1.98,1.98 l 0,33.11 c 0,1.1 0.88,1.98 1.98,1.98 l 1.54,0 c 1.045,0 1.925,-0.88 1.925,-1.98 l 0,-13.86 2.475,0 z m 0,-15.785 c 2.97,0 4.18,1.485 4.18,5.17 0,3.575 -1.21,5.17 -4.18,5.17 l -2.475,0 0,-10.34 2.475,0 z"
       style="font-style:normal;font-variant:normal;font-weight:900;font-stretch:normal;font-size:55px;font-family:'Ostrich Sans';-inkscape-font-specification:'Ostrich Sans Heavy';text-align:center;text-anchor:middle"
       id="path4223" />
    <path
       d="m 196.58775,148.95373 c 0,-2.86 -0.77,-5.115 -2.365,-6.82 0.165,-0.165 0.275,-0.275 0.44,-0.44 1.705,-1.705 2.31,-4.455 2.31,-7.865 0,-7.37 -2.365,-10.78 -9.13,-10.78 l -6.93,0 c -1.1,0 -1.98,0.88 -1.98,1.98 l 0,33.11 c 0,1.1 0.88,1.98 1.98,1.98 l 1.54,0 c 1.045,0 1.925,-0.88 1.925,-1.98 l 0,-13.475 2.475,0 c 2.695,0 4.235,1.54 4.235,4.29 l 0,9.185 c 0,1.1 0.88,1.98 1.98,1.98 l 1.54,0 c 1.1,0 1.98,-0.88 1.98,-1.98 l 0,-9.185 z m -12.21,-20.405 3.465,0 c 2.86,0 3.685,1.54 3.685,5.28 0,3.74 -1.595,5.28 -4.675,5.28 l -2.475,0 0,-10.56 z"
       style="font-style:normal;font-variant:normal;font-weight:900;font-stretch:normal;font-size:55px;font-family:'Ostrich Sans';-inkscape-font-specification:'Ostrich Sans Heavy';text-align:center;text-anchor:middle"
       id="path4225" />
    <path
       d="m 202.71682,123.10373 c -1.1,0 -1.98,0.88 -1.98,1.98 l 0,33.11 c 0,1.1 0.88,1.98 1.98,1.98 l 11.88,0 c 1.1,0 1.98,-0.88 1.98,-1.98 l 0,-1.485 c 0,-1.1 -0.88,-1.98 -1.98,-1.98 l -8.415,0 0,-10.395 6.93,0 c 1.1,0 1.98,-0.88 1.98,-1.98 l 0,-1.485 c 0,-1.1 -0.88,-1.98 -1.98,-1.98 l -6.93,0 0,-10.34 8.415,0 c 1.1,0 1.98,-0.88 1.98,-1.98 l 0,-1.485 c 0,-1.1 -0.88,-1.98 -1.98,-1.98 l -11.88,0 z"
       style="font-style:normal;font-variant:normal;font-weight:900;font-stretch:normal;font-size:55px;font-family:'Ostrich Sans';-inkscape-font-specification:'Ostrich Sans Heavy';text-align:center;text-anchor:middle"
       id="path4227" />
    <path
       d="m 218.51643,149.39373 c 0,7.205 3.025,10.725 9.075,10.725 5.83,0 9.075,-3.3 9.075,-9.46 0,-5.335 -3.685,-8.14 -7.315,-10.945 l 0.055,0 c -2.695,-2.09 -5.39,-4.235 -5.39,-7.04 0,-2.86 1.265,-4.125 3.575,-4.125 2.42,0 3.575,1.65 3.575,5.28 l 0,0.77 c 0,1.1 0.88,1.98 1.98,1.98 l 1.54,0 c 1.1,0 1.98,-0.88 1.98,-1.98 l 0,-0.77 c 0,-6.985 -3.135,-10.78 -9.075,-10.78 -5.83,0 -9.075,3.575 -9.075,9.79 0,5.445 3.795,8.415 7.425,11.275 l 0,-0.055 c 2.695,2.09 5.225,4.125 5.225,6.71 0,2.915 -1.265,3.905 -3.575,3.905 -0.77,0 -1.705,-0.11 -2.31,-0.715 -0.77,-0.66 -1.265,-1.925 -1.265,-4.565 l 0,-0.715 c 0,-1.1 -0.935,-1.98 -1.98,-1.98 l -1.54,0 c -1.1,0 -1.98,0.88 -1.98,1.98 l 0,0.715 z"
       style="font-style:normal;font-variant:normal;font-weight:900;font-stretch:normal;font-size:55px;font-family:'Ostrich Sans';-inkscape-font-specification:'Ostrich Sans Heavy';text-align:center;text-anchor:middle"
       id="path4229" />
    <path
       d="m 242.35549,123.10373 c -1.1,0 -1.98,0.88 -1.98,1.98 l 0,33.11 c 0,1.1 0.88,1.98 1.98,1.98 l 11.88,0 c 1.1,0 1.98,-0.88 1.98,-1.98 l 0,-1.485 c 0,-1.1 -0.88,-1.98 -1.98,-1.98 l -8.415,0 0,-10.395 6.93,0 c 1.1,0 1.98,-0.88 1.98,-1.98 l 0,-1.485 c 0,-1.1 -0.88,-1.98 -1.98,-1.98 l -6.93,0 0,-10.34 8.415,0 c 1.1,0 1.98,-0.88 1.98,-1.98 l 0,-1.485 c 0,-1.1 -0.88,-1.98 -1.98,-1.98 l -11.88,0 z"
       style="font-style:normal;font-variant:normal;font-weight:900;font-stretch:normal;font-size:55px;font-family:'Ostrich Sans';-inkscape-font-specification:'Ostrich Sans Heavy';text-align:center;text-anchor:middle"
       id="path4231" />
    <path
       d="m 276.09885,160.17373 c 1.1,0 1.98,-0.88 1.98,-1.98 l 0,-33.11 c 0,-1.1 -0.88,-1.98 -1.98,-1.98 l -1.54,0 c -1.1,0 -1.98,0.88 -1.98,1.98 l 0,18.15 -7.645,-18.92 c -0.22,-0.605 -1.1,-1.21 -1.815,-1.21 l -1.32,0 c -1.045,0 -1.98,0.88 -1.98,1.98 l 0,33.11 c 0,1.1 0.935,1.98 1.98,1.98 l 1.595,0 c 1.045,0 1.98,-0.88 1.98,-1.98 l 0,-18.15 7.645,18.92 c 0.22,0.605 1.155,1.21 1.815,1.21 l 1.265,0 z"
       style="font-style:normal;font-variant:normal;font-weight:900;font-stretch:normal;font-size:55px;font-family:'Ostrich Sans';-inkscape-font-specification:'Ostrich Sans Heavy';text-align:center;text-anchor:middle"
       id="path4233" />
    <path
       d="m 282.21244,126.56873 c 0,1.1 0.88,1.98 1.98,1.98 l 4.455,0 0,29.59 c 0,1.1 0.88,1.98 1.98,1.98 l 1.485,0 c 1.1,0 1.98,-0.88 1.98,-1.98 l 0,-29.59 4.51,0 c 1.1,0 1.98,-0.88 1.98,-1.98 l 0,-1.54 c 0,-1.1 -0.88,-1.98 -1.98,-1.98 l -14.41,0 c -1.1,0 -1.98,0.88 -1.98,1.98 l 0,1.54 z"
       style="font-style:normal;font-variant:normal;font-weight:900;font-stretch:normal;font-size:55px;font-family:'Ostrich Sans';-inkscape-font-specification:'Ostrich Sans Heavy';text-align:center;text-anchor:middle"
       id="path4235" />
    <path
       d="m 301.12385,149.39373 c 0,7.205 3.025,10.725 9.075,10.725 5.83,0 9.075,-3.3 9.075,-9.46 0,-5.335 -3.685,-8.14 -7.315,-10.945 l 0.055,0 c -2.695,-2.09 -5.39,-4.235 -5.39,-7.04 0,-2.86 1.265,-4.125 3.575,-4.125 2.42,0 3.575,1.65 3.575,5.28 l 0,0.77 c 0,1.1 0.88,1.98 1.98,1.98 l 1.54,0 c 1.1,0 1.98,-0.88 1.98,-1.98 l 0,-0.77 c 0,-6.985 -3.135,-10.78 -9.075,-10.78 -5.83,0 -9.075,3.575 -9.075,9.79 0,5.445 3.795,8.415 7.425,11.275 l 0,-0.055 c 2.695,2.09 5.225,4.125 5.225,6.71 0,2.915 -1.265,3.905 -3.575,3.905 -0.77,0 -1.705,-0.11 -2.31,-0.715 -0.77,-0.66 -1.265,-1.925 -1.265,-4.565 l 0,-0.715 c 0,-1.1 -0.935,-1.98 -1.98,-1.98 l -1.54,0 c -1.1,0 -1.98,0.88 -1.98,1.98 l 0,0.715 z"
       style="font-style:normal;font-variant:normal;font-weight:900;font-stretch:normal;font-size:55px;font-family:'Ostrich Sans';-inkscape-font-specification:'Ostrich Sans Heavy';text-align:center;text-anchor:middle"
       id="path4237" />
    <path
       d="m 53.561113,218.80373 c 0,5.83 2.42,10.065 9.02,10.065 6.38,0 9.02,-3.905 9.02,-10.065 l 0,-25.025 c 0,-1.1 -0.88,-1.98 -1.98,-1.98 l -1.54,0 c -1.045,0 -1.925,0.88 -1.925,1.98 l 0,25.025 c 0,2.64 -0.77,4.62 -3.575,4.62 -2.695,0 -3.575,-1.705 -3.575,-4.62 l 0,-25.025 c 0,-1.1 -0.88,-1.98 -1.98,-1.98 l -1.54,0 c -1.045,0 -1.925,0.88 -1.925,1.98 l 0,25.025 z"
       style="font-style:normal;font-variant:normal;font-weight:900;font-stretch:normal;font-size:55px;font-family:'Ostrich Sans';-inkscape-font-specification:'Ostrich Sans Heavy';text-align:center;text-anchor:middle"
       id="path4239" />
    <path
       d="m 92.729707,228.92373 c 1.1,0 1.98,-0.88 1.98,-1.98 l 0,-33.11 c 0,-1.1 -0.88,-1.98 -1.98,-1.98 l -1.54,0 c -1.1,0 -1.98,0.88 -1.98,1.98 l 0,18.15 -7.645,-18.92 c -0.22,-0.605 -1.1,-1.21 -1.815,-1.21 l -1.32,0 c -1.045,0 -1.98,0.88 -1.98,1.98 l 0,33.11 c 0,1.1 0.935,1.98 1.98,1.98 l 1.595,0 c 1.045,0 1.98,-0.88 1.98,-1.98 l 0,-18.15 7.645,18.92 c 0.22,0.605 1.155,1.21 1.815,1.21 l 1.265,0 z"
       style="font-style:normal;font-variant:normal;font-weight:900;font-stretch:normal;font-size:55px;font-family:'Ostrich Sans';-inkscape-font-specification:'Ostrich Sans Heavy';text-align:center;text-anchor:middle"
       id="path4241" />
    <path
       d="m 106.7633,228.92373 c 6.6,0 9.68,-3.74 9.68,-10.89 l 0,-15.29 c 0,-7.15 -3.08,-10.89 -9.68,-10.89 l -5.61,0 c -1.1,0 -1.979999,0.88 -1.979999,1.98 l 0,33.11 c 0,1.1 0.879999,1.98 1.979999,1.98 l 5.61,0 z m 0,-31.625 c 2.915,0 4.125,1.76 4.125,5.445 l 0,15.29 c 0,3.685 -1.21,5.445 -4.125,5.445 l -2.145,0 0,-26.18 2.145,0 z"
       style="font-style:normal;font-variant:normal;font-weight:900;font-stretch:normal;font-size:55px;font-family:'Ostrich Sans';-inkscape-font-specification:'Ostrich Sans Heavy';text-align:center;text-anchor:middle"
       id="path4243" />
    <path
       d="m 122.90236,191.85373 c -1.1,0 -1.98,0.88 -1.98,1.98 l 0,33.11 c 0,1.1 0.88,1.98 1.98,1.98 l 11.88,0 c 1.1,0 1.98,-0.88 1.98,-1.98 l 0,-1.485 c 0,-1.1 -0.88,-1.98 -1.98,-1.98 l -8.415,0 0,-10.395 6.93,0 c 1.1,0 1.98,-0.88 1.98,-1.98 l 0,-1.485 c 0,-1.1 -0.88,-1.98 -1.98,-1.98 l -6.93,0 0,-10.34 8.415,0 c 1.1,0 1.98,-0.88 1.98,-1.98 l 0,-1.485 c 0,-1.1 -0.88,-1.98 -1.98,-1.98 l -11.88,0 z"
       style="font-style:normal;font-variant:normal;font-weight:900;font-stretch:normal;font-size:55px;font-family:'Ostrich Sans';-inkscape-font-specification:'Ostrich Sans Heavy';text-align:center;text-anchor:middle"
       id="path4245" />
    <path
       d="m 158.13072,217.70373 c 0,-2.86 -0.77,-5.115 -2.365,-6.82 0.165,-0.165 0.275,-0.275 0.44,-0.44 1.705,-1.705 2.31,-4.455 2.31,-7.865 0,-7.37 -2.365,-10.78 -9.13,-10.78 l -6.93,0 c -1.1,0 -1.98,0.88 -1.98,1.98 l 0,33.11 c 0,1.1 0.88,1.98 1.98,1.98 l 1.54,0 c 1.045,0 1.925,-0.88 1.925,-1.98 l 0,-13.475 2.475,0 c 2.695,0 4.235,1.54 4.235,4.29 l 0,9.185 c 0,1.1 0.88,1.98 1.98,1.98 l 1.54,0 c 1.1,0 1.98,-0.88 1.98,-1.98 l 0,-9.185 z m -12.21,-20.405 3.465,0 c 2.86,0 3.685,1.54 3.685,5.28 0,3.74 -1.595,5.28 -4.675,5.28 l -2.475,0 0,-10.56 z"
       style="font-style:normal;font-variant:normal;font-weight:900;font-stretch:normal;font-size:55px;font-family:'Ostrich Sans';-inkscape-font-specification:'Ostrich Sans Heavy';text-align:center;text-anchor:middle"
       id="path4247" />
    <path
       d="m 178.55979,228.92373 c 1.1,0 1.98,-0.88 1.98,-1.98 l 0,-33.11 c 0,-1.1 -0.88,-1.98 -1.98,-1.98 l -1.54,0 c -1.1,0 -1.98,0.88 -1.98,1.98 l 0,18.15 -7.645,-18.92 c -0.22,-0.605 -1.1,-1.21 -1.815,-1.21 l -1.32,0 c -1.045,0 -1.98,0.88 -1.98,1.98 l 0,33.11 c 0,1.1 0.935,1.98 1.98,1.98 l 1.595,0 c 1.045,0 1.98,-0.88 1.98,-1.98 l 0,-18.15 7.645,18.92 c 0.22,0.605 1.155,1.21 1.815,1.21 l 1.265,0 z"
       style="font-style:normal;font-variant:normal;font-weight:900;font-stretch:normal;font-size:55px;font-family:'Ostrich Sans';-inkscape-font-specification:'Ostrich Sans Heavy';text-align:center;text-anchor:middle"
       id="path4249" />
    <path
       d="m 186.81838,191.85373 c -1.1,0 -1.98,0.88 -1.98,1.98 l 0,33.11 c 0,1.1 0.88,1.98 1.98,1.98 l 11.88,0 c 1.1,0 1.98,-0.88 1.98,-1.98 l 0,-1.485 c 0,-1.1 -0.88,-1.98 -1.98,-1.98 l -8.415,0 0,-10.395 6.93,0 c 1.1,0 1.98,-0.88 1.98,-1.98 l 0,-1.485 c 0,-1.1 -0.88,-1.98 -1.98,-1.98 l -6.93,0 0,-10.34 8.415,0 c 1.1,0 1.98,-0.88 1.98,-1.98 l 0,-1.485 c 0,-1.1 -0.88,-1.98 -1.98,-1.98 l -11.88,0 z"
       style="font-style:normal;font-variant:normal;font-weight:900;font-stretch:normal;font-size:55px;font-family:'Ostrich Sans';-inkscape-font-specification:'Ostrich Sans Heavy';text-align:center;text-anchor:middle"
       id="path4251" />
    <path
       d="m 217.1483,227.38373 c 0.22,0.825 1.1,1.54 1.925,1.54 l 1.595,0 c 1.32,0 2.2,-1.155 1.925,-2.42 l -7.59,-33.11 c -0.165,-0.825 -1.1,-1.54 -1.925,-1.54 l -1.21,0 c -0.825,0 -1.705,0.715 -1.925,1.54 l -5.005,21.505 -2.64,11.66 c -0.275,1.265 0.605,2.365 1.925,2.365 l 1.595,0 c 0.825,0 1.705,-0.715 1.925,-1.54 l 1.925,-8.58 5.61,0 1.87,8.58 z m -4.675,-22.825 c 1.045,4.675 0.935,6.16 1.54,8.8 l -3.08,0 1.54,-8.8 z"
       style="font-style:normal;font-variant:normal;font-weight:900;font-stretch:normal;font-size:55px;font-family:'Ostrich Sans';-inkscape-font-specification:'Ostrich Sans Heavy';text-align:center;text-anchor:middle"
       id="path4253" />
    <path
       d="m 220.76713,195.31873 c 0,1.1 0.88,1.98 1.98,1.98 l 4.455,0 0,29.59 c 0,1.1 0.88,1.98 1.98,1.98 l 1.485,0 c 1.1,0 1.98,-0.88 1.98,-1.98 l 0,-29.59 4.51,0 c 1.1,0 1.98,-0.88 1.98,-1.98 l 0,-1.54 c 0,-1.1 -0.88,-1.98 -1.98,-1.98 l -14.41,0 c -1.1,0 -1.98,0.88 -1.98,1.98 l 0,1.54 z"
       style="font-style:normal;font-variant:normal;font-weight:900;font-stretch:normal;font-size:55px;font-family:'Ostrich Sans';-inkscape-font-specification:'Ostrich Sans Heavy';text-align:center;text-anchor:middle"
       id="path4255" />
    <path
       d="m 246.4676,207.69373 0,-13.86 c 0,-1.1 -0.88,-1.98 -1.98,-1.98 l -1.54,0 c -1.1,0 -1.98,0.88 -1.98,1.98 l 0,33.11 c 0,1.1 0.88,1.98 1.98,1.98 l 1.54,0 c 1.1,0 1.98,-0.88 1.98,-1.98 l 0,-13.805 6.105,0 0,13.805 c 0,1.1 0.88,1.98 1.98,1.98 l 1.54,0 c 1.1,0 1.98,-0.88 1.98,-1.98 l 0,-33.11 c 0,-1.1 -0.88,-1.98 -1.98,-1.98 l -1.54,0 c -1.1,0 -1.98,0.88 -1.98,1.98 l 0,13.86 -6.105,0 z"
       style="font-style:normal;font-variant:normal;font-weight:900;font-stretch:normal;font-size:55px;font-family:'Ostrich Sans';-inkscape-font-specification:'Ostrich Sans Heavy';text-align:center;text-anchor:middle"
       id="path4257" />
    <path
       d="m 289.22838,227.38373 c 0.22,0.825 1.1,1.54 1.925,1.54 l 1.595,0 c 1.32,0 2.2,-1.155 1.925,-2.42 l -7.59,-33.11 c -0.165,-0.825 -1.1,-1.54 -1.925,-1.54 l -1.21,0 c -0.825,0 -1.705,0.715 -1.925,1.54 l -5.005,21.505 -2.64,11.66 c -0.275,1.265 0.605,2.365 1.925,2.365 l 1.595,0 c 0.825,0 1.705,-0.715 1.925,-1.54 l 1.925,-8.58 5.61,0 1.87,8.58 z m -4.675,-22.825 c 1.045,4.675 0.935,6.16 1.54,8.8 l -3.08,0 1.54,-8.8 z"
       style="font-style:normal;font-variant:normal;font-weight:900;font-stretch:normal;font-size:55px;font-family:'Ostrich Sans';-inkscape-font-specification:'Ostrich Sans Heavy';text-align:center;text-anchor:middle"
       id="path4259" />
    <path
       d="m 36.648613,286.89373 c 0,4.345 1.21,6.875 2.915,8.58 1.815,1.76 4.07,2.2 6.16,2.2 1.98,0 4.29,-0.44 6.105,-2.2 1.705,-1.705 2.86,-4.235 2.86,-8.58 l 0,-0.77 c 0,-1.1 -0.88,-1.98 -1.925,-1.98 l -1.595,0 c -1.1,0 -1.98,0.88 -1.98,1.98 l 0,0.77 c 0,1.98 -0.275,3.465 -0.935,4.345 -0.495,0.55 -1.485,0.99 -2.53,0.99 -2.365,0 -3.52,-1.65 -3.52,-5.335 l 0,-15.565 c 0,-3.685 1.21,-5.28 3.52,-5.28 2.255,0 3.465,1.595 3.465,5.28 l 0,0.77 c 0,1.1 0.88,1.98 1.98,1.98 l 1.595,0 c 1.045,0 1.925,-0.88 1.925,-1.98 l 0,-0.77 c 0,-4.18 -1.155,-6.93 -2.915,-8.58 -1.815,-1.65 -4.015,-2.145 -6.05,-2.145 -2.09,0 -4.29,0.495 -6.105,2.145 -1.76,1.65 -2.97,4.4 -2.97,8.58 l 0,15.565 z"
       style="font-style:normal;font-variant:normal;font-weight:900;font-stretch:normal;font-size:55px;font-family:'Ostrich Sans';-inkscape-font-specification:'Ostrich Sans Heavy';text-align:center;text-anchor:middle"
       id="path4261" />
    <path
       d="m 63.957832,276.44373 0,-13.86 c 0,-1.1 -0.88,-1.98 -1.98,-1.98 l -1.54,0 c -1.1,0 -1.98,0.88 -1.98,1.98 l 0,33.11 c 0,1.1 0.88,1.98 1.98,1.98 l 1.54,0 c 1.1,0 1.98,-0.88 1.98,-1.98 l 0,-13.805 6.105,0 0,13.805 c 0,1.1 0.88,1.98 1.98,1.98 l 1.54,0 c 1.1,0 1.98,-0.88 1.98,-1.98 l 0,-33.11 c 0,-1.1 -0.88,-1.98 -1.98,-1.98 l -1.54,0 c -1.1,0 -1.98,0.88 -1.98,1.98 l 0,13.86 -6.105,0 z"
       style="font-style:normal;font-variant:normal;font-weight:900;font-stretch:normal;font-size:55px;font-family:'Ostrich Sans';-inkscape-font-specification:'Ostrich Sans Heavy';text-align:center;text-anchor:middle"
       id="path4263" />
    <path
       d="m 97.867051,286.45373 c 0,-2.86 -0.77,-5.115 -2.365,-6.82 0.165,-0.165 0.275,-0.275 0.44,-0.44 1.705,-1.705 2.31,-4.455 2.31,-7.865 0,-7.37 -2.365,-10.78 -9.13,-10.78 l -6.93,0 c -1.1,0 -1.98,0.88 -1.98,1.98 l 0,33.11 c 0,1.1 0.88,1.98 1.98,1.98 l 1.54,0 c 1.045,0 1.925,-0.88 1.925,-1.98 l 0,-13.475 2.475,0 c 2.695,0 4.235,1.54 4.235,4.29 l 0,9.185 c 0,1.1 0.88,1.98 1.98,1.98 l 1.54,0 c 1.1,0 1.98,-0.88 1.98,-1.98 l 0,-9.185 z m -12.21,-20.405 3.465,0 c 2.86,0 3.685,1.54 3.685,5.28 0,3.74 -1.595,5.28 -4.675,5.28 l -2.475,0 0,-10.56 z"
       style="font-style:normal;font-variant:normal;font-weight:900;font-stretch:normal;font-size:55px;font-family:'Ostrich Sans';-inkscape-font-specification:'Ostrich Sans Heavy';text-align:center;text-anchor:middle"
       id="path4265" />
    <path
       d="m 107.35111,262.58373 c 0,-1.1 -0.935,-1.98 -1.98,-1.98 l -1.54,0 c -1.1,0 -1.98,0.88 -1.98,1.98 l 0,33.11 c 0,1.1 0.88,1.98 1.98,1.98 l 1.54,0 c 1.045,0 1.98,-0.88 1.98,-1.98 l 0,-33.11 z"
       style="font-style:normal;font-variant:normal;font-weight:900;font-stretch:normal;font-size:55px;font-family:'Ostrich Sans';-inkscape-font-specification:'Ostrich Sans Heavy';text-align:center;text-anchor:middle"
       id="path4267" />
    <path
       d="m 111.20197,286.89373 c 0,7.205 3.025,10.725 9.075,10.725 5.83,0 9.075,-3.3 9.075,-9.46 0,-5.335 -3.685,-8.14 -7.315,-10.945 l 0.055,0 c -2.695,-2.09 -5.39,-4.235 -5.39,-7.04 0,-2.86 1.265,-4.125 3.575,-4.125 2.42,0 3.575,1.65 3.575,5.28 l 0,0.77 c 0,1.1 0.88,1.98 1.98,1.98 l 1.54,0 c 1.1,0 1.98,-0.88 1.98,-1.98 l 0,-0.77 c 0,-6.985 -3.135,-10.78 -9.075,-10.78 -5.83,0 -9.075,3.575 -9.075,9.79 0,5.445 3.795,8.415 7.425,11.275 l 0,-0.055 c 2.695,2.09 5.225,4.125 5.225,6.71 0,2.915 -1.265,3.905 -3.575,3.905 -0.77,0 -1.705,-0.11 -2.31,-0.715 -0.77,-0.66 -1.265,-1.925 -1.265,-4.565 l 0,-0.715 c 0,-1.1 -0.935,-1.98 -1.98,-1.98 l -1.54,0 c -1.1,0 -1.98,0.88 -1.98,1.98 l 0,0.715 z"
       style="font-style:normal;font-variant:normal;font-weight:900;font-stretch:normal;font-size:55px;font-family:'Ostrich Sans';-inkscape-font-specification:'Ostrich Sans Heavy';text-align:center;text-anchor:middle"
       id="path4269" />
    <path
       d="m 131.28471,264.06873 c 0,1.1 0.88,1.98 1.98,1.98 l 4.455,0 0,29.59 c 0,1.1 0.88,1.98 1.98,1.98 l 1.485,0 c 1.1,0 1.98,-0.88 1.98,-1.98 l 0,-29.59 4.51,0 c 1.1,0 1.98,-0.88 1.98,-1.98 l 0,-1.54 c 0,-1.1 -0.88,-1.98 -1.98,-1.98 l -14.41,0 c -1.1,0 -1.98,0.88 -1.98,1.98 l 0,1.54 z"
       style="font-style:normal;font-variant:normal;font-weight:900;font-stretch:normal;font-size:55px;font-family:'Ostrich Sans';-inkscape-font-specification:'Ostrich Sans Heavy';text-align:center;text-anchor:middle"
       id="path4271" />
    <path
       d="m 163.97361,297.67373 c 0.825,0 1.705,-0.715 1.925,-1.595 l 1.815,-12.21 0,11.825 c 0,1.1 0.88,1.98 1.98,1.98 l 1.54,0 c 1.1,0 1.98,-0.88 1.98,-1.98 l 0,-33.11 c 0,-1.1 -0.88,-1.98 -1.98,-1.98 l -1.65,0 c -0.825,0 -1.76,0.715 -1.925,1.54 l -4.29,22.165 -4.345,-22.165 c -0.165,-0.825 -1.045,-1.54 -1.87,-1.54 l -1.65,0 c -1.1,0 -1.98,0.88 -1.98,1.98 l 0,33.11 c 0,1.1 0.88,1.98 1.98,1.98 l 1.54,0 c 1.045,0 1.98,-0.88 1.98,-1.98 l 0,-11.935 1.87,12.375 c 0.165,0.825 1.045,1.54 1.87,1.54 l 1.21,0 z"
       style="font-style:normal;font-variant:normal;font-weight:900;font-stretch:normal;font-size:55px;font-family:'Ostrich Sans';-inkscape-font-specification:'Ostrich Sans Heavy';text-align:center;text-anchor:middle"
       id="path4273" />
    <path
       d="m 191.25963,296.13373 c 0.22,0.825 1.1,1.54 1.925,1.54 l 1.595,0 c 1.32,0 2.2,-1.155 1.925,-2.42 l -7.59,-33.11 c -0.165,-0.825 -1.1,-1.54 -1.925,-1.54 l -1.21,0 c -0.825,0 -1.705,0.715 -1.925,1.54 l -5.005,21.505 -2.64,11.66 c -0.275,1.265 0.605,2.365 1.925,2.365 l 1.595,0 c 0.825,0 1.705,-0.715 1.925,-1.54 l 1.925,-8.58 5.61,0 1.87,8.58 z m -4.675,-22.825 c 1.045,4.675 0.935,6.16 1.54,8.8 l -3.08,0 1.54,-8.8 z"
       style="font-style:normal;font-variant:normal;font-weight:900;font-stretch:normal;font-size:55px;font-family:'Ostrich Sans';-inkscape-font-specification:'Ostrich Sans Heavy';text-align:center;text-anchor:middle"
       id="path4275" />
    <path
       d="m 199.28791,286.89373 c 0,7.205 3.025,10.725 9.075,10.725 5.83,0 9.075,-3.3 9.075,-9.46 0,-5.335 -3.685,-8.14 -7.315,-10.945 l 0.055,0 c -2.695,-2.09 -5.39,-4.235 -5.39,-7.04 0,-2.86 1.265,-4.125 3.575,-4.125 2.42,0 3.575,1.65 3.575,5.28 l 0,0.77 c 0,1.1 0.88,1.98 1.98,1.98 l 1.54,0 c 1.1,0 1.98,-0.88 1.98,-1.98 l 0,-0.77 c 0,-6.985 -3.135,-10.78 -9.075,-10.78 -5.83,0 -9.075,3.575 -9.075,9.79 0,5.445 3.795,8.415 7.425,11.275 l 0,-0.055 c 2.695,2.09 5.225,4.125 5.225,6.71 0,2.915 -1.265,3.905 -3.575,3.905 -0.77,0 -1.705,-0.11 -2.31,-0.715 -0.77,-0.66 -1.265,-1.925 -1.265,-4.565 l 0,-0.715 c 0,-1.1 -0.935,-1.98 -1.98,-1.98 l -1.54,0 c -1.1,0 -1.98,0.88 -1.98,1.98 l 0,0.715 z"
       style="font-style:normal;font-variant:normal;font-weight:900;font-stretch:normal;font-size:55px;font-family:'Ostrich Sans';-inkscape-font-specification:'Ostrich Sans Heavy';text-align:center;text-anchor:middle"
       id="path4277" />
    <path
       d="m 232.58354,264.06873 c 0,1.1 0.88,1.98 1.98,1.98 l 4.455,0 0,29.59 c 0,1.1 0.88,1.98 1.98,1.98 l 1.485,0 c 1.1,0 1.98,-0.88 1.98,-1.98 l 0,-29.59 4.51,0 c 1.1,0 1.98,-0.88 1.98,-1.98 l 0,-1.54 c 0,-1.1 -0.88,-1.98 -1.98,-1.98 l -14.41,0 c -1.1,0 -1.98,0.88 -1.98,1.98 l 0,1.54 z"
       style="font-style:normal;font-variant:normal;font-weight:900;font-stretch:normal;font-size:55px;font-family:'Ostrich Sans';-inkscape-font-specification:'Ostrich Sans Heavy';text-align:center;text-anchor:middle"
       id="path4279" />
    <path
       d="m 272.64244,286.45373 c 0,-2.86 -0.77,-5.115 -2.365,-6.82 0.165,-0.165 0.275,-0.275 0.44,-0.44 1.705,-1.705 2.31,-4.455 2.31,-7.865 0,-7.37 -2.365,-10.78 -9.13,-10.78 l -6.93,0 c -1.1,0 -1.98,0.88 -1.98,1.98 l 0,33.11 c 0,1.1 0.88,1.98 1.98,1.98 l 1.54,0 c 1.045,0 1.925,-0.88 1.925,-1.98 l 0,-13.475 2.475,0 c 2.695,0 4.235,1.54 4.235,4.29 l 0,9.185 c 0,1.1 0.88,1.98 1.98,1.98 l 1.54,0 c 1.1,0 1.98,-0.88 1.98,-1.98 l 0,-9.185 z m -12.21,-20.405 3.465,0 c 2.86,0 3.685,1.54 3.685,5.28 0,3.74 -1.595,5.28 -4.675,5.28 l -2.475,0 0,-10.56 z"
       style="font-style:normal;font-variant:normal;font-weight:900;font-stretch:normal;font-size:55px;font-family:'Ostrich Sans';-inkscape-font-specification:'Ostrich Sans Heavy';text-align:center;text-anchor:middle"
       id="path4281" />
    <path
       d="m 278.7715,260.60373 c -1.1,0 -1.98,0.88 -1.98,1.98 l 0,33.11 c 0,1.1 0.88,1.98 1.98,1.98 l 11.88,0 c 1.1,0 1.98,-0.88 1.98,-1.98 l 0,-1.485 c 0,-1.1 -0.88,-1.98 -1.98,-1.98 l -8.415,0 0,-10.395 6.93,0 c 1.1,0 1.98,-0.88 1.98,-1.98 l 0,-1.485 c 0,-1.1 -0.88,-1.98 -1.98,-1.98 l -6.93,0 0,-10.34 8.415,0 c 1.1,0 1.98,-0.88 1.98,-1.98 l 0,-1.485 c 0,-1.1 -0.88,-1.98 -1.98,-1.98 l -11.88,0 z"
       style="font-style:normal;font-variant:normal;font-weight:900;font-stretch:normal;font-size:55px;font-family:'Ostrich Sans';-inkscape-font-specification:'Ostrich Sans Heavy';text-align:center;text-anchor:middle"
       id="path4283" />
    <path
       d="m 298.21486,260.60373 c -1.1,0 -1.98,0.88 -1.98,1.98 l 0,33.11 c 0,1.1 0.88,1.98 1.98,1.98 l 11.88,0 c 1.1,0 1.98,-0.88 1.98,-1.98 l 0,-1.485 c 0,-1.1 -0.88,-1.98 -1.98,-1.98 l -8.415,0 0,-10.395 6.93,0 c 1.1,0 1.98,-0.88 1.98,-1.98 l 0,-1.485 c 0,-1.1 -0.88,-1.98 -1.98,-1.98 l -6.93,0 0,-10.34 8.415,0 c 1.1,0 1.98,-0.88 1.98,-1.98 l 0,-1.485 c 0,-1.1 -0.88,-1.98 -1.98,-1.98 l -11.88,0 z"
       style="font-style:normal;font-variant:normal;font-weight:900;font-stretch:normal;font-size:55px;font-family:'Ostrich Sans';-inkscape-font-specification:'Ostrich Sans Heavy';text-align:center;text-anchor:middle"
       id="path4285" />
  </g>
</svg>
